<?xml version="1.0" standalone="no"?>
<!DOCTYPE svg PUBLIC "-//W3C//DTD SVG 20010904//EN"
 "http://www.w3.org/TR/2001/REC-SVG-20010904/DTD/svg10.dtd">
<svg version="1.0" xmlns="http://www.w3.org/2000/svg"
 width="156.000000pt" height="156.000000pt" viewBox="0 0 156.000000 156.000000"
 preserveAspectRatio="xMidYMid meet">
<metadata>
Created by potrace 1.11, written by Peter Selinger 2001-2013
</metadata>
<g transform="translate(0.000000,156.000000) scale(0.100000,-0.100000)"
fill="#000000" stroke="none">
<path d="M680 1554 c-166 -34 -262 -74 -377 -160 -150 -112 -245 -272 -292
-489 -14 -67 -4 -239 18 -325 92 -347 388 -573 751 -574 188 0 333 49 481 162
238 184 347 504 272 799 -88 347 -373 576 -733 588 -52 2 -106 1 -120 -1z
m300 -167 c94 -35 139 -60 203 -111 287 -235 315 -676 58 -936 -144 -145 -314
-210 -512 -196 -155 12 -290 76 -406 193 -149 151 -214 377 -167 582 53 229
232 418 449 475 92 24 93 24 205 20 80 -2 120 -9 170 -27z"/>
<path d="M528 1070 c-81 -24 -129 -89 -130 -178 0 -87 35 -139 215 -320 l163
-161 166 167 c202 204 227 248 204 370 -15 80 -103 137 -197 126 -40 -5 -105
-42 -143 -83 l-29 -31 -42 39 c-72 66 -141 90 -207 71z"/>
</g>
</svg>
